<svg width="22" height="19" viewBox="0 0 22 19" fill="none" xmlns="http://www.w3.org/2000/svg">
<path d="M2.04546 11.2064L9.80994 18.527C10.1322 18.8308 10.5576 19 11.0001 19C11.4427 19 11.8681 18.8308 12.1903 18.527L19.9548 11.2064C21.2611 9.97841 22.0001 8.25561 22.0001 6.45481V6.20312C22.0001 3.16989 19.8302 0.583608 16.8697 0.0845799C14.9103 -0.245214 12.9165 0.401349 11.5158 1.816L11.0001 2.33672L10.4845 1.816C9.08374 0.401349 7.08999 -0.245214 5.13062 0.0845799C2.17007 0.583608 0.000143588 3.16989 0.000143588 6.20312V6.45481C0.000143588 8.25561 0.739206 9.97841 2.04546 11.2064Z" fill="#E72385"/>
</svg>
