<svg width="34" height="34" viewBox="0 0 34 34" fill="none" xmlns="http://www.w3.org/2000/svg">
<rect width="34" height="34" rx="16" fill="url(#paint0_linear_313_132)"/>
<path d="M19.8332 11.334C21.3915 11.334 22.6665 12.609 22.6665 14.1673C22.6665 15.7257 21.3915 17.0007 19.8332 17.0007C18.2748 17.0007 16.9998 15.7257 16.9998 14.1673C16.9998 12.609 18.2748 11.334 19.8332 11.334ZM14.1665 11.334C15.7248 11.334 16.9998 12.609 16.9998 14.1673C16.9998 15.7257 15.7248 17.0007 14.1665 17.0007C12.6082 17.0007 11.3332 15.7257 11.3332 14.1673C11.3332 12.609 12.6082 11.334 14.1665 11.334ZM14.1665 18.4173C16.504 18.4173 18.4165 20.3298 18.4165 22.6673H9.9165C9.9165 20.3298 11.829 18.4173 14.1665 18.4173ZM19.8332 18.4173C22.1707 18.4173 24.0832 20.3298 24.0832 22.6673H15.5832C15.5832 20.3298 17.4957 18.4173 19.8332 18.4173Z" fill="white"/>
<defs>
<linearGradient id="paint0_linear_313_132" x1="0" y1="17" x2="34" y2="17" gradientUnits="userSpaceOnUse">
<stop offset="1" stop-color="#A8E6CF"/>
<stop stop-color="#88D8C0"/>
</linearGradient>
</defs>
</svg>
