<svg width="104" height="104" viewBox="0 0 104 104" fill="none" xmlns="http://www.w3.org/2000/svg">
<rect width="104" height="104" rx="12" fill="url(#paint0_linear_328_155)"/>
<path d="M25.043 57.137L47.9835 78.5542C48.9355 79.4428 50.1924 79.9379 51.5 79.9379C52.8076 79.9379 54.0645 79.4428 55.0165 78.5542L77.9569 57.137C81.8165 53.5443 84 48.5041 84 43.2357V42.4994C84 33.6254 77.5888 26.059 68.8417 24.599C63.0527 23.6342 57.162 25.5257 53.0234 29.6644L51.5 31.1879L49.9766 29.6644C45.8379 25.5257 39.9473 23.6342 34.1582 24.599C25.4111 26.059 19 33.6254 19 42.4994V43.2357C19 48.5041 21.1836 53.5443 25.043 57.137Z" fill="white"/>
<defs>
<linearGradient id="paint0_linear_328_155" x1="0" y1="52" x2="104" y2="52" gradientUnits="userSpaceOnUse">
<stop offset="1" stop-color="#88D8C0"/>
<stop stop-color="#A8E6CF"/>
</linearGradient>
</defs>
</svg>
