<svg width="80" height="80" viewBox="0 0 80 80" fill="none" xmlns="http://www.w3.org/2000/svg">
<rect width="80" height="80" rx="40" fill="white"/>
<mask id="mask0_320_42" style="mask-type:luminance" maskUnits="userSpaceOnUse" x="20" y="21" width="40" height="39">
<path d="M59.5359 21.0391H20.748V59.8269H59.5359V21.0391Z" fill="white"/>
</mask>
<g mask="url(#mask0_320_42)">
<path d="M24.3541 46.6639L38.0436 59.4443C38.6117 59.9745 39.3618 60.27 40.142 60.27C40.9222 60.27 41.6723 59.9745 42.2404 59.4443L55.9298 46.6639C58.233 44.52 59.5359 41.5123 59.5359 38.3685V37.9291C59.5359 32.6337 55.7101 28.1185 50.4905 27.2473C47.0359 26.6715 43.5208 27.8003 41.0511 30.27L40.142 31.1791L39.2329 30.27C36.7632 27.8003 33.2481 26.6715 29.7935 27.2473C24.5738 28.1185 20.748 32.6337 20.748 37.9291V38.3685C20.748 41.5123 22.0511 44.52 24.3541 46.6639Z" fill="#EF4444"/>
</g>
</svg>
