<svg width="87" height="95" viewBox="0 0 87 95" fill="none" xmlns="http://www.w3.org/2000/svg">
<rect width="87" height="94.9091" rx="12" fill="url(#paint0_linear_328_103)"/>
<path d="M34.8749 47.0453L40.2613 52.4316L51.034 41.6589M67.1931 47.0453C67.1931 50.2283 66.5661 53.3802 65.348 56.321C64.1299 59.2618 62.3445 61.9338 60.0938 64.1846C57.843 66.4353 55.1709 68.2208 52.2302 69.4389C49.2894 70.657 46.1375 71.2839 42.9545 71.2839C39.7714 71.2839 36.6195 70.657 33.6787 69.4389C30.738 68.2208 28.0659 66.4353 25.8152 64.1846C23.5644 61.9338 21.779 59.2618 20.5609 56.321C19.3428 53.3802 18.7158 50.2283 18.7158 47.0453C18.7158 40.6168 21.2695 34.4516 25.8152 29.906C30.3608 25.3603 36.526 22.8066 42.9545 22.8066C49.3829 22.8066 55.5481 25.3603 60.0938 29.906C64.6394 34.4516 67.1931 40.6168 67.1931 47.0453Z" stroke="white" stroke-width="2" stroke-linecap="round" stroke-linejoin="round"/>
<defs>
<linearGradient id="paint0_linear_328_103" x1="0" y1="47.4545" x2="87" y2="47.4545" gradientUnits="userSpaceOnUse">
<stop offset="1" stop-color="#88D8C0"/>
<stop stop-color="#A8E6CF"/>
</linearGradient>
</defs>
</svg>
